<svg width="320" height="320" viewBox="0 0 320 320" fill="none" xmlns="http://www.w3.org/2000/svg">
  <rect width="320" height="320" rx="28" fill="#020617"/>
  <g filter="url(#shadow)">
    <path d="M88 236L118 192L112 170C110 158 116 146 126 140L160 120L186 84C194 72 210 70 222 80L256 108C266 116 268 130 260 142L240 170L260 202C268 216 262 234 248 240L214 254L196 278C188 288 172 288 162 278L140 252L116 264C104 270 90 262 86 248L80 230L88 236Z" fill="#E5E7EB"/>
    <path d="M176 130L198 98" stroke="#111827" stroke-width="14" stroke-linecap="round"/>
    <path d="M214 184L244 186" stroke="#111827" stroke-width="12" stroke-linecap="round"/>
    <path d="M152 220L180 230" stroke="#111827" stroke-width="12" stroke-linecap="round"/>
  </g>
  <circle cx="184" cy="118" r="16" fill="#F9FAFB"/>
  <circle cx="212" cy="134" r="14" fill="#F9FAFB"/>
  <text x="24" y="296" fill="#F87171" font-family="'Orbitron', sans-serif" font-size="20" letter-spacing="4">REAPER</text>
  <defs>
    <filter id="shadow" x="74" y="72" width="212" height="220" filterUnits="userSpaceOnUse" color-interpolation-filters="sRGB">
      <feDropShadow dx="0" dy="10" stdDeviation="22" flood-color="#0F172A" flood-opacity="0.7"/>
    </filter>
  </defs>
</svg>
