<svg width="320" height="320" viewBox="0 0 320 320" fill="none" xmlns="http://www.w3.org/2000/svg">
  <rect width="320" height="320" rx="28" fill="#171717"/>
  <g filter="url(#shadow)">
    <path d="M82 238L104 182C108 172 118 166 128 168L152 174L170 152L162 132C158 120 162 108 172 100L202 76C210 70 222 72 230 80L252 102C260 110 260 124 252 132L234 148L246 174C252 186 248 200 236 206L212 218L198 248C192 260 178 264 166 258L142 244L116 260C104 268 88 260 84 246L80 232L82 238Z" fill="#E7E5E4"/>
    <path d="M188 120L210 96" stroke="#404040" stroke-width="12" stroke-linecap="round"/>
    <path d="M148 210L174 210" stroke="#404040" stroke-width="12" stroke-linecap="round"/>
    <path d="M118 188L136 208" stroke="#404040" stroke-width="12" stroke-linecap="round"/>
  </g>
  <text x="24" y="296" fill="#FBBF24" font-family="'Orbitron', sans-serif" font-size="20" letter-spacing="4">ENFORCER</text>
  <defs>
    <filter id="shadow" x="68" y="68" width="208" height="220" filterUnits="userSpaceOnUse" color-interpolation-filters="sRGB">
      <feDropShadow dx="0" dy="8" stdDeviation="18" flood-color="#020617" flood-opacity="0.65"/>
    </filter>
  </defs>
</svg>
