<svg width="320" height="320" viewBox="0 0 320 320" fill="none" xmlns="http://www.w3.org/2000/svg">
  <rect width="320" height="320" rx="28" fill="#1C1917"/>
  <g filter="url(#shadow)">
    <path d="M86 240L108 188L94 160C88 148 92 134 104 126L134 106L150 74C156 62 170 58 182 64L220 84C230 90 236 102 232 114L224 140L252 176C260 186 260 200 252 210L222 248L210 268C204 278 190 280 180 272L152 250L120 268C108 276 92 268 88 254L82 232L86 240Z" fill="#F4F4F5"/>
    <path d="M150 116L168 86" stroke="#3F3F46" stroke-width="12" stroke-linecap="round"/>
    <path d="M202 176L226 170" stroke="#3F3F46" stroke-width="12" stroke-linecap="round"/>
    <path d="M160 222L186 226" stroke="#3F3F46" stroke-width="12" stroke-linecap="round"/>
  </g>
  <text x="24" y="296" fill="#F87171" font-family="'Orbitron', sans-serif" font-size="20" letter-spacing="4">MARAUDER</text>
  <defs>
    <filter id="shadow" x="72" y="60" width="204" height="228" filterUnits="userSpaceOnUse" color-interpolation-filters="sRGB">
      <feDropShadow dx="0" dy="8" stdDeviation="16" flood-color="#020617" flood-opacity="0.6"/>
    </filter>
  </defs>
</svg>
