<svg width="256" height="256" viewBox="0 0 256 256" fill="none" xmlns="http://www.w3.org/2000/svg">
  <defs>
    <radialGradient id="echo-core" cx="50%" cy="45%" r="50%">
      <stop offset="0" stop-color="#fff7c2"/>
      <stop offset="0.32" stop-color="#facc15"/>
      <stop offset="0.68" stop-color="#b77912"/>
      <stop offset="1" stop-color="#24170a"/>
    </radialGradient>
    <linearGradient id="echo-ring" x1="42" y1="36" x2="214" y2="220" gradientUnits="userSpaceOnUse">
      <stop stop-color="#fff8d5"/>
      <stop offset="0.42" stop-color="#f59e0b"/>
      <stop offset="0.72" stop-color="#0f172a"/>
      <stop offset="1" stop-color="#67e8f9"/>
    </linearGradient>
    <filter id="echo-glow" x="-40" y="-40" width="336" height="336" filterUnits="userSpaceOnUse">
      <feGaussianBlur stdDeviation="7" result="blur"/>
      <feColorMatrix in="blur" type="matrix" values="1 0 0 0 1 0 0 0 0 0.68 0 0 0 0 0.08 0 0 0 0.9 0"/>
      <feBlend in="SourceGraphic"/>
    </filter>
  </defs>
  <circle cx="128" cy="128" r="92" fill="#07111f" opacity="0.84"/>
  <circle cx="128" cy="128" r="76" stroke="url(#echo-ring)" stroke-width="16" filter="url(#echo-glow)"/>
  <circle cx="128" cy="128" r="47" fill="#05070b" stroke="#fef3c7" stroke-opacity="0.62" stroke-width="3"/>
  <path d="M128 32V62M128 194V224M224 128H194M62 128H32" stroke="#fde68a" stroke-width="6" stroke-linecap="round"/>
  <path d="M73 73L92 92M183 183L164 164M183 73L164 92M73 183L92 164" stroke="#67e8f9" stroke-opacity="0.72" stroke-width="5" stroke-linecap="round"/>
  <path d="M119 75L154 120H132L143 181L102 127H126L119 75Z" fill="url(#echo-core)" stroke="#fff7c2" stroke-width="3" stroke-linejoin="round"/>
  <circle cx="128" cy="128" r="103" stroke="#f8fafc" stroke-opacity="0.16" stroke-width="2"/>
</svg>
