<svg width="320" height="320" viewBox="0 0 320 320" fill="none" xmlns="http://www.w3.org/2000/svg">
  <rect width="320" height="320" rx="28" fill="#111827"/>
  <g filter="url(#shadow)">
    <path d="M92 238L110 190L98 170C92 158 96 142 108 134L132 120L146 88C150 76 162 68 176 70L214 74C224 76 232 84 234 94L238 124L264 140C276 148 278 166 270 178L236 226L230 254C228 266 216 274 204 270L172 260L146 272C134 278 120 272 114 260L96 226L92 238Z" fill="#E0E7FF"/>
    <path d="M148 126L160 96" stroke="#1F2937" stroke-width="12" stroke-linecap="round"/>
    <path d="M206 166L224 154" stroke="#1F2937" stroke-width="12" stroke-linecap="round"/>
    <path d="M164 212L192 214" stroke="#1F2937" stroke-width="12" stroke-linecap="round"/>
  </g>
  <text x="24" y="296" fill="#F472B6" font-family="'Orbitron', sans-serif" font-size="20" letter-spacing="3">AUGUR</text>
  <defs>
    <filter id="shadow" x="80" y="66" width="204" height="214" filterUnits="userSpaceOnUse" color-interpolation-filters="sRGB">
      <feDropShadow dx="0" dy="6" stdDeviation="14" flood-color="#020617" flood-opacity="0.55"/>
    </filter>
  </defs>
</svg>
