<svg width="320" height="320" viewBox="0 0 320 320" fill="none" xmlns="http://www.w3.org/2000/svg">
  <rect width="320" height="320" rx="28" fill="#111827"/>
  <g filter="url(#shadow)">
    <path d="M214 246L202 222L174 210L150 230L130 214C122 208 120 196 126 188L156 150L152 120L132 108C120 100 116 84 124 72L148 34C154 24 168 22 178 28L214 48C222 52 226 60 226 68L224 98L248 124C256 132 258 144 252 154L238 178L246 210C250 224 242 238 228 242L214 246Z" fill="#E2E8F0"/>
    <path d="M170 210L184 184" stroke="#0F172A" stroke-width="12" stroke-linecap="round"/>
    <path d="M204 158L224 150" stroke="#0F172A" stroke-width="10" stroke-linecap="round"/>
    <path d="M144 110L160 90" stroke="#0F172A" stroke-width="10" stroke-linecap="round"/>
  </g>
  <text x="24" y="296" fill="#A5B4FC" font-family="'Orbitron', sans-serif" font-size="20" letter-spacing="3">OPERATIVE</text>
  <defs>
    <filter id="shadow" x="88" y="20" width="176" height="240" filterUnits="userSpaceOnUse" color-interpolation-filters="sRGB">
      <feDropShadow dx="0" dy="6" stdDeviation="12" flood-color="#020617" flood-opacity="0.55"/>
    </filter>
  </defs>
</svg>
