<svg width="320" height="320" viewBox="0 0 320 320" fill="none" xmlns="http://www.w3.org/2000/svg">
  <rect width="320" height="320" rx="28" fill="#0B1120"/>
  <g filter="url(#shadow)">
    <path d="M88 244L94 198C96 186 104 176 116 172L134 164L146 134C150 122 162 116 174 118L204 122C216 124 224 134 224 146L222 170L242 182C254 190 258 206 250 218L226 254C220 264 206 268 196 262L172 248L146 260C134 266 120 260 116 248L104 214L88 244Z" fill="#C7D2FE"/>
    <path d="M156 156L164 134" stroke="#1E293B" stroke-width="12" stroke-linecap="round"/>
    <path d="M188 204L214 204" stroke="#1E293B" stroke-width="12" stroke-linecap="round"/>
    <path d="M118 206L138 222" stroke="#1E293B" stroke-width="12" stroke-linecap="round"/>
  </g>
  <text x="24" y="296" fill="#6366F1" font-family="'Orbitron', sans-serif" font-size="20" letter-spacing="3">SENTINEL</text>
  <defs>
    <filter id="shadow" x="76" y="110" width="180" height="162" filterUnits="userSpaceOnUse" color-interpolation-filters="sRGB">
      <feDropShadow dx="0" dy="6" stdDeviation="14" flood-color="#020617" flood-opacity="0.6"/>
    </filter>
  </defs>
</svg>
